<svg width="12" height="12" viewBox="0 0 12 12" fill="none" xmlns="http://www.w3.org/2000/svg">
<path d="M11.5999 7.153C11.5999 6.90259 11.3969 6.69959 11.1465 6.69959H5.31591C5.06549 6.69959 4.86249 6.90259 4.86249 7.153V10.3509C4.86249 10.6013 5.06549 10.8043 5.31591 10.8043H9.7681L10.9108 11.4997C11.2129 11.6835 11.5999 11.466 11.5999 11.1123V7.153Z" fill="#F3D7E5"/>
<path fill-rule="evenodd" clip-rule="evenodd" d="M0.853314 0.433472C0.602902 0.433472 0.399902 0.636471 0.399902 0.886883V6.12104C0.399902 6.47474 0.786865 6.69224 1.08902 6.50837L2.2317 5.81301L8.46801 5.81301C8.71843 5.81301 8.92142 5.61001 8.92142 5.3596V0.886883C8.92142 0.636471 8.71843 0.433472 8.46801 0.433472H0.853314ZM3.07761 3.00234C3.07761 3.25275 2.87461 3.45575 2.6242 3.45575C2.37378 3.45575 2.17078 3.25275 2.17078 3.00234C2.17078 2.75193 2.37378 2.54893 2.6242 2.54893C2.87461 2.54893 3.07761 2.75193 3.07761 3.00234ZM5.11408 3.00234C5.11408 3.25275 4.91108 3.45575 4.66067 3.45575C4.41025 3.45575 4.20725 3.25275 4.20725 3.00234C4.20725 2.75193 4.41025 2.54893 4.66067 2.54893C4.91108 2.54893 5.11408 2.75193 5.11408 3.00234ZM6.69714 3.45575C6.94755 3.45575 7.15055 3.25275 7.15055 3.00234C7.15055 2.75193 6.94755 2.54893 6.69714 2.54893C6.44672 2.54893 6.24372 2.75193 6.24372 3.00234C6.24372 3.25275 6.44672 3.45575 6.69714 3.45575Z" fill="#F3D7E5"/>
</svg>
