<svg width="30" height="30" viewBox="0 0 30 30" fill="none" xmlns="http://www.w3.org/2000/svg">
<path d="M27.351 17.5431C27.351 16.9908 26.9033 16.5431 26.351 16.5431H13.4917C12.9394 16.5431 12.4917 16.9908 12.4917 17.5431V24.5961C12.4917 25.1484 12.9394 25.5961 13.4917 25.5961H23.311L25.8312 27.1297C26.4976 27.5352 27.351 27.0555 27.351 26.2754V17.5431Z" fill="#1E1E1E"/>
<path fill-rule="evenodd" clip-rule="evenodd" d="M3.64941 2.72314C3.09713 2.72314 2.64941 3.17086 2.64941 3.72314V15.2671C2.64941 16.0472 3.50286 16.5269 4.16926 16.1213L6.68945 14.5877L20.4437 14.5877C20.9959 14.5877 21.4437 14.14 21.4437 13.5877V3.72314C21.4437 3.17086 20.9959 2.72314 20.4437 2.72314H3.64941ZM8.5551 8.38879C8.5551 8.94108 8.10738 9.38879 7.5551 9.38879C7.00281 9.38879 6.5551 8.94108 6.5551 8.38879C6.5551 7.83651 7.00281 7.38879 7.5551 7.38879C8.10738 7.38879 8.5551 7.83651 8.5551 8.38879ZM13.0465 8.38879C13.0465 8.94108 12.5988 9.38879 12.0465 9.38879C11.4943 9.38879 11.0465 8.94108 11.0465 8.38879C11.0465 7.83651 11.4943 7.38879 12.0465 7.38879C12.5988 7.38879 13.0465 7.83651 13.0465 8.38879ZM16.538 9.38879C17.0903 9.38879 17.538 8.94108 17.538 8.38879C17.538 7.83651 17.0903 7.38879 16.538 7.38879C15.9857 7.38879 15.538 7.83651 15.538 8.38879C15.538 8.94108 15.9857 9.38879 16.538 9.38879Z" fill="#1E1E1E"/>
</svg>
