<svg width="30" height="30" viewBox="0 0 30 30" fill="none" xmlns="http://www.w3.org/2000/svg">
<path fill-rule="evenodd" clip-rule="evenodd" d="M4.71875 3.68457C3.61418 3.68457 2.71875 4.58 2.71875 5.68457V19.3153C2.71875 20.4199 3.61418 21.3153 4.71875 21.3153H12.9998V24.3153H8.49976C8.22362 24.3153 7.99976 24.5392 7.99976 24.8153V25.8153C7.99976 26.0914 8.22362 26.3153 8.49976 26.3153H21.4998C21.7759 26.3153 21.9998 26.0914 21.9998 25.8153V24.8153C21.9998 24.5392 21.7759 24.3153 21.4998 24.3153H16.9998V21.3153H25.2808C26.3853 21.3153 27.2808 20.4199 27.2808 19.3153V5.68457C27.2808 4.58 26.3853 3.68457 25.2808 3.68457H4.71875ZM25.2808 17.3153V5.68457L4.71875 5.68457V17.3153H25.2808Z" fill="#1E1E1E"/>
</svg>
