<svg width="10" height="12" viewBox="0 0 10 12" fill="none" xmlns="http://www.w3.org/2000/svg">
<path d="M0.905973 3.20042C1.21024 3.62246 1.65191 3.9071 2.16229 3.98562C2.496 4.04451 2.8199 3.9758 3.12416 3.86784L4.18418 5.35972L1.4458 9.76665C0.984493 10.5028 1.21024 11.4941 1.95618 11.9456C2.12303 12.0535 2.33896 11.9947 2.44693 11.8278L5.15587 7.48957L8.11018 11.6609C8.22796 11.818 8.44389 11.8572 8.60093 11.7395C9.31742 11.2389 9.48428 10.2476 8.98371 9.53109L5.99014 5.30083L6.96182 3.74024C7.2759 3.83839 7.5998 3.86784 7.93351 3.78932C8.44389 3.67154 8.86593 3.36728 9.15057 2.9256C9.42539 2.49374 9.50391 1.96373 9.39594 1.46317C9.24872 0.982232 8.94445 0.560187 8.50278 0.295182C8.16907 0.0792525 7.78628 -0.0090825 7.42313 0.000732483C6.79497 0.0203625 6.18644 0.334442 5.82328 0.913527C5.54846 1.34539 5.46994 1.8754 5.57791 2.37596C5.65643 2.70967 5.8331 2.98449 6.04903 3.22005L5.05772 4.80026L3.97807 3.26913C4.17437 3.01394 4.34122 2.7293 4.40011 2.39559C4.47863 1.88521 4.37066 1.36502 4.0664 0.942972C3.6738 0.393332 3.05546 0.108698 2.4273 0.128328C2.06414 0.138143 1.69117 0.255922 1.36728 0.481667C0.945232 0.785932 0.660598 1.22761 0.582078 1.73799C0.503558 2.24837 0.611523 2.76856 0.915788 3.19061L0.905973 3.20042ZM6.70663 1.46317C6.97164 1.04112 7.53109 0.913527 7.94332 1.16872C8.14944 1.29631 8.28685 1.49261 8.34574 1.72817C8.40463 1.96373 8.36537 2.19929 8.23777 2.40541C8.11018 2.61152 7.91388 2.74893 7.67832 2.80782C7.61943 2.82745 7.56054 2.82745 7.50165 2.82745C7.32498 2.82745 7.14831 2.78819 7.00108 2.69986C6.79497 2.57226 6.65756 2.37596 6.59867 2.1404C6.53978 1.90484 6.57904 1.66928 6.70663 1.46317ZM4.8516 5.41861C5.03808 5.29101 5.29327 5.33027 5.4405 5.51676C5.56809 5.70324 5.52883 5.95843 5.34235 6.10566C5.15586 6.23325 4.90067 6.19399 4.75345 6.00751C4.62586 5.82102 4.66512 5.56583 4.8516 5.41861ZM1.60284 1.93429C1.6421 1.69873 1.76969 1.49261 1.96599 1.3552C2.36841 1.07057 2.92786 1.1589 3.22231 1.57113C3.35972 1.76743 3.41861 2.00299 3.37935 2.23855C3.34009 2.47411 3.2125 2.68023 3.0162 2.81764C2.8199 2.95505 2.58434 3.01394 2.34878 2.97468C2.11322 2.93542 1.9071 2.80782 1.76969 2.61152C1.63228 2.41522 1.57339 2.17966 1.61265 1.9441L1.60284 1.93429Z" fill="#F3D7E5"/>
</svg>
