<svg width="14" height="14" viewBox="0 0 14 14" fill="none" xmlns="http://www.w3.org/2000/svg">
<path d="M12.5999 8.15313C12.5999 7.90271 12.3969 7.69971 12.1465 7.69971H6.31591C6.06549 7.69971 5.86249 7.90271 5.86249 8.15312V11.351C5.86249 11.6014 6.06549 11.8044 6.31591 11.8044H10.7681L11.9108 12.4998C12.2129 12.6837 12.5999 12.4662 12.5999 12.1125V8.15313Z" fill="#989898"/>
<path fill-rule="evenodd" clip-rule="evenodd" d="M1.85331 1.43359C1.6029 1.43359 1.3999 1.63659 1.3999 1.88701V7.12116C1.3999 7.47486 1.78687 7.69236 2.08902 7.50849L3.2317 6.81313L9.46801 6.81313C9.71843 6.81313 9.92142 6.61013 9.92142 6.35972V1.88701C9.92142 1.63659 9.71843 1.43359 9.46801 1.43359H1.85331ZM4.07761 4.00246C4.07761 4.25288 3.87461 4.45588 3.6242 4.45588C3.37378 4.45588 3.17078 4.25288 3.17078 4.00246C3.17078 3.75205 3.37378 3.54905 3.6242 3.54905C3.87461 3.54905 4.07761 3.75205 4.07761 4.00246ZM6.11408 4.00246C6.11408 4.25288 5.91108 4.45588 5.66067 4.45588C5.41025 4.45588 5.20725 4.25288 5.20725 4.00246C5.20725 3.75205 5.41025 3.54905 5.66067 3.54905C5.91108 3.54905 6.11408 3.75205 6.11408 4.00246ZM7.69714 4.45588C7.94755 4.45588 8.15055 4.25288 8.15055 4.00246C8.15055 3.75205 7.94755 3.54905 7.69714 3.54905C7.44672 3.54905 7.24372 3.75205 7.24372 4.00246C7.24372 4.25288 7.44672 4.45588 7.69714 4.45588Z" fill="#989898"/>
</svg>
